<?xml version="1.0" encoding="UTF-8"?>
<svg width="16" height="16" version="1.1" xmlns="http://www.w3.org/2000/svg">
 <rect width="16" height="16" rx=".8" ry=".8" fill="#8fb633"/>
 <a transform="translate(-.102 .01476)">
  <g transform="translate(-30.36 -2.815)" fill="#f9f9f9">
   <path d="m37.55 17.39c-0.695-0.1579-1.441-0.6296-1.559-1.384-0.05788-0.7778 0.04932-1.557 0.2785-2.301 0.2563-0.981 0.6225-1.937 0.7856-2.94 0.01348-0.3496 0.08843-0.7291-0.05285-1.059-0.195-0.3867-0.6667-0.442-1.053-0.3954-0.3026-0.01545-0.6689 0.1963-0.9116 0.1377 0.0096-0.4081 0.2007-0.7298 0.632-0.8631 1.009-0.3118 2.089-0.7206 3.133-0.37 0.6189 0.169 1.144 0.6875 1.224 1.338 0.1198 0.956-0.2107 1.89-0.4466 2.804-0.2335 0.9004-0.5675 1.785-0.6554 2.717 0.0053 0.3584-0.0847 0.8588 0.3431 1.014 0.5644 0.2424 1.193 0.08899 1.754-0.07703-0.03958 0.2484-0.1129 0.4902-0.1711 0.7348-0.897 0.3604-1.821 0.7414-2.808 0.6945-0.1654-0.0029-0.3317-0.01361-0.4935-0.05002z"/>
   <path d="m38.9 6.407c-0.9041-0.3197-1.353-1.132-1.095-1.981 0.1776-0.5846 0.7282-1.035 1.415-1.158 0.5398-0.09647 1.093 0.08062 1.523 0.4873 0.8109 0.7669 0.5851 2.065-0.4476 2.573-0.2569 0.1265-0.3415 0.145-0.7147 0.1567-0.3391 0.01065-0.4746-0.00483-0.6811-0.07786z"/>
  </g>
 </a>
</svg>
