<?xml version="1.0" encoding="UTF-8"?>
<svg width="15" height="15" version="1" xmlns="http://www.w3.org/2000/svg">
 <rect width="15" height="15" rx=".803" ry=".803" fill="#ff9800"/>
 <path class="ColorScheme-Text" d="m7.479 1.506a6.249 6.249 0 0 0-6.249 6.249 6.249 6.249 0 0 0 6.249 6.249 6.249 6.249 0 0 0 5.982-4.464h-1.893a4.464 4.464 0 0 1-4.089 2.678 4.464 4.464 0 0 1-4.464-4.464 4.464 4.464 0 0 1 4.464-4.464 4.464 4.464 0 0 1 3.15 1.313l-2.258 2.258h5.356v-5.356l-1.833 1.832a6.249 6.249 0 0 0-4.416-1.832z" color="#444444" fill="#fff" stroke-width=".8927"/>
</svg>
