<?xml version="1.0" encoding="UTF-8"?>
<svg width="64" height="64" version="1" xmlns="http://www.w3.org/2000/svg">
 <rect width="64" height="64" rx="3.426" ry="3.426" fill="#435ece" stroke-width="4.267"/>
 <path d="m36.79 60.84h-7.983v-7.983h7.983zm8.265-32.22-3.595 3.673c-2.874 2.914-4.672 5.308-4.672 11.3h-7.983v-1.996c0-4.39 1.796-8.38 4.672-11.3l4.949-5.03c1.478-1.437 2.356-3.433 2.356-5.628 0-4.39-3.593-7.983-7.983-7.983-4.39 0-7.983 4.471-7.983 10.86h-7.983c0-12.77 7.147-18.84 15.97-18.84 8.819 0 15.97 7.147 15.97 15.97 0 3.513-1.437 6.707-3.711 8.981z" fill="#fff" stroke-width="1.497"/>
</svg>
