<?xml version="1.0" encoding="UTF-8"?>
<svg width="64" height="64" version="1" xmlns="http://www.w3.org/2000/svg">
 <rect x="4" y="22" width="56" height="36" rx="2.8" ry="2.8" opacity=".2"/>
 <path d="m4 46.2c0 1.551 1.249 2.8 2.8 2.8h50.4c1.551 0 2.8-1.249 2.8-2.8v-30.4c0-1.551-1.249-2.8-2.8-2.8h-25.2c-4.2 0-5.6-6-9.8-6h-15.4c-1.551 0-2.8 1.249-2.8 2.8" fill="#60924b"/>
 <rect x="4" y="20" width="56" height="36" rx="2.8" ry="2.8" opacity=".2"/>
 <rect x="8" y="16" width="48" height="22" rx="2.8" ry="2.8" fill="#e4e4e4"/>
 <rect x="4" y="21" width="56" height="36" rx="2.8" ry="2.8" fill="#87b158"/>
 <path d="m6.801 7c-1.551 0-2.801 1.25-2.801 2.801v1c0-1.551 1.25-2.801 2.801-2.801h15.4c4.2 0 5.601 6 9.801 6h25.2c1.551 0 2.801 1.25 2.801 2.801v-1c0-1.551-1.25-2.801-2.801-2.801h-25.2c-4.2 0-5.601-6-9.801-6z" fill="#fff" opacity=".1"/>
 <path d="m4 47.25c-0.05031 2.009-0.06017 3.968-0.06201 5.984 0.02835 0.9143-0.073 1.95 0.5803 2.69 0.5981 0.7705 1.584 1.215 2.56 1.117 15.1 0.06593 30.13 0.0503 45.23 0.02598 1.757-0.02278 3.519 0.02357 5.273-0.05214 1.345-0.2065 2.528-1.429 2.416-2.82 0.04721-2.299-0.0076-4.653 0-6.953-19.15-0.2176-38.79-0.03234-56 0.0068z" fill="#8e8e8e"/>
 <path d="m4 47.25 56-0.006835v-11.71c-18.43-0.2831-56-0.1112-56-0.1112z" fill="#eb6637"/>
 <path d="m4 35.43 56 0.1112v-10.74l-56 0.3259z" fill="#e2b322"/>
</svg>
